<svg width="68" height="66" viewBox="0 0 68 66" fill="none" xmlns="http://www.w3.org/2000/svg">
<path d="M32.5 41.6252C42.9704 41.6252 51.4584 33.1372 51.4584 22.6668C51.4584 12.1964 42.9704 3.7085 32.5 3.7085C22.0296 3.7085 13.5417 12.1964 13.5417 22.6668C13.5417 33.1372 22.0296 41.6252 32.5 41.6252Z" stroke="#E89F9F" stroke-width="5" stroke-linecap="round" stroke-linejoin="round"/>
<path d="M22.2354 38.6184L18.9583 63.2913L32.5 55.1663L46.0416 63.2913L42.7646 38.5913" stroke="#E89F9F" stroke-width="5" stroke-linecap="round" stroke-linejoin="round"/>
<path d="M35.5 40.6252C45.9704 40.6252 54.4584 32.1372 54.4584 21.6668C54.4584 11.1964 45.9704 2.7085 35.5 2.7085C25.0296 2.7085 16.5417 11.1964 16.5417 21.6668C16.5417 32.1372 25.0296 40.6252 35.5 40.6252Z" stroke="#FFFA78" stroke-width="5" stroke-linecap="round" stroke-linejoin="round"/>
<path d="M25.2354 37.6184L21.9583 62.2913L35.5 54.1663L49.0416 62.2913L45.7646 37.5913" stroke="#FFFA78" stroke-width="5" stroke-linecap="round" stroke-linejoin="round"/>
</svg>
