<svg width="210" height="90" viewBox="0 0 210 90" fill="none" xmlns="http://www.w3.org/2000/svg">
<g clip-path="url(#clip0)">
<path d="M35.5769 35.993V24.5819C35.5769 23.018 35.2739 21.5469 34.6677 20.1685C34.0879 18.7637 33.2842 17.5444 32.2564 16.5106C31.2286 15.4768 30.0164 14.6684 28.6197 14.0853C27.2494 13.4756 25.7867 13.1707 24.2319 13.1707C22.6771 13.1707 21.2013 13.4756 19.8046 14.0853C18.4342 14.6684 17.2352 15.4768 16.2074 16.5106C15.1797 17.5444 14.3627 18.7637 13.7566 20.1685C13.1768 21.5469 12.8869 23.018 12.8869 24.5819V35.993H35.5769ZM46.9219 58.7755H35.5769V47.3644H12.8869V58.7755H1.58148V24.5819C1.58148 21.4276 2.17443 18.4721 3.36032 15.7154C4.5462 12.9322 6.15374 10.5068 8.18295 8.43931C10.2385 6.37176 12.6366 4.74162 15.3773 3.54882C18.1444 2.35601 21.0959 1.75961 24.2319 1.75961C27.3679 1.75961 30.3063 2.35601 33.047 3.54882C35.8141 4.74162 38.2254 6.37176 40.2809 8.43931C42.3364 10.5068 43.9571 12.9322 45.1431 15.7154C46.3289 18.4721 46.9219 21.4276 46.9219 24.5819V58.7755ZM113.015 58.7755H101.71V18.0612C101.71 17.2661 101.552 16.5238 101.235 15.8347C100.945 15.1455 100.537 14.5491 100.01 14.0455C99.5096 13.5153 98.9167 13.1045 98.2313 12.8129C97.5459 12.5213 96.8082 12.3756 96.0175 12.3756C95.2268 12.3756 94.4891 12.5213 93.8037 12.8129C93.1189 13.1045 92.5126 13.5153 91.9855 14.0455C91.4851 14.5491 91.0895 15.1455 90.7998 15.8347C90.51 16.5238 90.3651 17.2661 90.3651 18.0612V58.7755H79.0197V18.0612C79.0197 17.2661 78.8748 16.5238 78.5851 15.8347C78.2953 15.1455 77.8869 14.5491 77.3598 14.0455C76.8588 13.5153 76.2659 13.1045 75.5805 12.8129C74.8958 12.5213 74.158 12.3756 73.3673 12.3756C72.5766 12.3756 71.8389 12.5213 71.1535 12.8129C70.4681 13.1045 69.8624 13.5153 69.3353 14.0455C68.8344 14.5491 68.4393 15.1455 68.149 15.8347C67.8592 16.5238 67.7144 17.2661 67.7144 18.0612V58.7755H56.3694V18.0612C56.3694 15.7021 56.8043 13.4888 57.6739 11.4213C58.5699 9.32726 59.7821 7.51158 61.3109 5.97418C62.8655 4.41028 64.6709 3.19097 66.7264 2.31625C68.8082 1.41503 71.022 0.964417 73.3673 0.964417C75.4752 0.964417 77.5046 1.34876 79.4549 2.11746C81.4045 2.85965 83.1576 3.94642 84.7122 5.37778C86.2668 3.94642 88.0064 2.85965 89.9299 2.11746C91.8802 1.34876 93.9096 0.964417 96.0175 0.964417C98.3628 0.964417 100.563 1.41503 102.619 2.31625C104.701 3.19097 106.506 4.41028 108.034 5.97418C109.59 7.51158 110.801 9.32726 111.671 11.4213C112.567 13.4888 113.015 15.7021 113.015 18.0612V58.7755ZM162.467 37.1063C162.467 40.2871 161.9 43.2558 160.767 46.0125C159.634 48.7427 158.092 51.1151 156.142 53.1296C154.192 55.1176 151.899 56.6947 149.264 57.861C146.655 59.0008 143.848 59.5707 140.844 59.5707C137.866 59.5707 135.06 59.0008 132.424 57.861C129.815 56.6947 127.522 55.1176 125.546 53.1296C123.596 51.1151 122.054 48.7427 120.921 46.0125C119.788 43.2558 119.222 40.2871 119.222 37.1063C119.222 33.8725 119.788 30.8772 120.921 28.1205C122.054 25.3638 123.596 22.9915 125.546 21.0035C127.522 18.989 129.815 17.4118 132.424 16.272C135.06 15.1323 137.866 14.5624 140.844 14.5624C143.848 14.5624 146.655 15.1057 149.264 16.1925C151.899 17.2528 154.192 18.7769 156.142 20.7649C158.092 22.7264 159.634 25.0987 160.767 27.882C161.9 30.6386 162.467 33.7135 162.467 37.1063ZM151.596 37.1063C151.596 35.3568 151.307 33.7797 150.726 32.3748C150.173 30.9435 149.409 29.7242 148.433 28.7169C147.459 27.6832 146.312 26.9012 144.995 26.3711C143.703 25.8145 142.32 25.5361 140.844 25.5361C139.368 25.5361 137.972 25.8145 136.654 26.3711C135.363 26.9012 134.23 27.6832 133.254 28.7169C132.305 29.7242 131.554 30.9435 131.001 32.3748C130.448 33.7797 130.171 35.3568 130.171 37.1063C130.171 38.7497 130.448 40.2738 131.001 41.6787C131.554 43.0836 132.305 44.3028 133.254 45.3366C134.23 46.3704 135.363 47.1921 136.654 47.8018C137.972 48.3849 139.368 48.6765 140.844 48.6765C142.32 48.6765 143.703 48.3982 144.995 47.8415C146.312 47.2848 147.459 46.503 148.433 45.4957C149.409 44.4884 150.173 43.2691 150.726 41.8378C151.307 40.4064 151.596 38.8293 151.596 37.1063ZM209.27 58.7755H169.582V1.75961H180.927V47.3644H209.27V58.7755Z" fill="#476CF2"/>
<path d="M140.913 90.1734C147.177 90.1734 152.254 88.5391 152.254 86.523C152.254 84.507 147.177 82.8727 140.913 82.8727C134.649 82.8727 129.572 84.507 129.572 86.523C129.572 88.5391 134.649 90.1734 140.913 90.1734Z" fill="url(#paint0_radial)"/>
<path d="M139.794 86.6351C140.215 87.6245 141.611 87.6245 142.032 86.6351L162.062 39.6343C162.407 38.8264 161.818 37.9274 160.943 37.9274H120.883C120.009 37.9274 119.419 38.8264 119.764 39.6343L139.794 86.6351Z" fill="#476CF2"/>
<g filter="url(#filter0_d)">
<path d="M140.913 48.1941C147.177 48.1941 152.254 43.0868 152.254 36.7867C152.254 30.4865 147.177 25.3792 140.913 25.3792C134.649 25.3792 129.572 30.4865 129.572 36.7867C129.572 43.0868 134.649 48.1941 140.913 48.1941Z" fill="#EA8C93"/>
</g>
<g filter="url(#filter1_i)">
<path d="M3.91206 66.8076C4.57473 66.1971 5.07873 65.8922 5.42406 65.8922C5.76939 65.8922 6.27338 66.1971 6.93606 66.8076C7.59875 67.418 8.00937 67.92 8.16806 68.3143C8.27075 68.5867 8.32206 69.2014 8.32206 70.159V75.9184H6.39006V73.8061H4.45806V75.9184H2.52606V70.159C2.52606 69.2014 2.57739 68.5867 2.68006 68.3143C2.83873 67.92 3.24939 67.418 3.91206 66.8076ZM4.45806 70.159V72.1163H6.39006V70.159C6.39006 69.3894 6.35275 68.9198 6.27806 68.7508C6.20337 68.5727 6.07273 68.3896 5.88606 68.2016C5.70873 68.0045 5.55473 67.9059 5.42406 67.9059C5.29339 67.9059 5.13473 68.0045 4.94806 68.2016C4.77073 68.3896 4.64473 68.5727 4.57006 68.7508C4.49539 68.9198 4.45806 69.3894 4.45806 70.159ZM11.7755 75.9184H9.9275V71.0602C9.9275 70.5814 9.8715 70.2104 9.7595 69.9478C9.6475 69.6851 9.47012 69.4549 9.2275 69.2578L10.7675 68.1735C11.1128 68.4551 11.3695 68.779 11.5375 69.1451C12.2281 68.4882 12.7135 68.1594 12.9935 68.1594C13.2828 68.1594 13.7121 68.422 14.2815 68.948C14.8601 69.4641 15.1495 69.9759 15.1495 70.4829V73.2006C15.1495 73.6794 15.2055 74.0504 15.3175 74.3131C15.4295 74.5757 15.6068 74.8059 15.8495 75.0031L14.3095 76.0874C13.6375 75.5523 13.3015 74.7918 13.3015 73.8061V70.68C13.3015 70.5202 13.2175 70.3561 13.0495 70.1871C12.8815 70.009 12.7228 69.9196 12.5735 69.9196C12.4335 69.9196 12.1675 70.1167 11.7755 70.511V75.9184ZM19.7685 70.4547C19.7031 70.342 19.5725 70.2245 19.3765 70.1027C19.1805 69.9808 19.0311 69.9196 18.9285 69.9196C18.8258 69.9196 18.7138 69.9808 18.5925 70.1027C18.4805 70.2245 18.4058 70.3371 18.3685 70.4406C18.2938 70.5906 18.2565 71.0602 18.2565 71.8488C18.2565 72.6374 18.2938 73.102 18.3685 73.2429C18.4058 73.3365 18.4805 73.4492 18.5925 73.5808C18.7138 73.7027 18.8258 73.7639 18.9285 73.7639C19.0311 73.7639 19.1805 73.7027 19.3765 73.5808C19.5818 73.4492 19.7171 73.3323 19.7825 73.2288C19.8478 73.1161 19.8805 72.6563 19.8805 71.8488C19.8805 71.032 19.8431 70.5673 19.7685 70.4547ZM21.7005 68.3284V75.4537C21.7005 76.6555 21.6445 77.3688 21.5325 77.5941C21.4298 77.8286 21.0565 78.1947 20.4125 78.6925C19.7685 79.1902 19.2831 79.4388 18.9565 79.4388C18.6391 79.4388 18.2378 79.2747 17.7525 78.9459C17.2671 78.6269 16.9031 78.2559 16.6605 77.8335L18.1025 76.8337L18.2425 77.0167C18.5878 77.4582 18.8258 77.6786 18.9565 77.6786C19.0965 77.6786 19.2505 77.6174 19.4185 77.4955C19.5958 77.3737 19.7125 77.242 19.7685 77.1012C19.8338 76.9696 19.8665 76.3971 19.8665 75.3833L19.9085 74.8341C19.2738 75.2939 18.8398 75.5241 18.6065 75.5241C18.3825 75.5241 18.0231 75.2755 17.5285 74.7778C17.0338 74.28 16.7351 73.9096 16.6325 73.6653C16.5298 73.421 16.4785 72.8155 16.4785 71.8488C16.4785 70.882 16.5298 70.2765 16.6325 70.0323C16.7351 69.7788 17.0338 69.4035 17.5285 68.9057C18.0231 68.408 18.4011 68.1594 18.6625 68.1594C18.9238 68.1594 19.4231 68.46 20.1605 69.0606L20.3285 68.3284H21.7005ZM27.8532 72.1022V72.6092H24.4652C24.4652 73.1725 24.5352 73.6182 24.6752 73.9469C24.7218 74.0596 24.8058 74.1771 24.9272 74.299C25.0485 74.4116 25.1745 74.468 25.3052 74.468C25.4358 74.468 25.5992 74.3553 25.7952 74.13C25.9912 73.9047 26.1452 73.6323 26.2572 73.3133L27.6992 74.3412C27.4472 74.8108 27.0598 75.2192 26.5372 75.5663C26.0238 75.9135 25.6085 76.0874 25.2912 76.0874C24.9738 76.0874 24.5118 75.8388 23.9052 75.341C23.3078 74.8433 22.9438 74.4588 22.8132 74.1863C22.6825 73.9047 22.6172 73.2196 22.6172 72.1304C22.6172 71.032 22.6825 70.3469 22.8132 70.0745C22.9438 69.7929 23.3078 69.4035 23.9052 68.9057C24.5118 68.408 24.9552 68.1594 25.2352 68.1594C25.5152 68.1594 25.9538 68.408 26.5512 68.9057C27.1578 69.4035 27.5265 69.7929 27.6572 70.0745C27.7878 70.3469 27.8532 71.0229 27.8532 72.1022ZM25.9072 70.342C25.8418 70.2104 25.7345 70.0837 25.5852 69.9618C25.4452 69.84 25.3098 69.7788 25.1792 69.7788C25.0578 69.7788 24.9178 69.9055 24.7592 70.159C24.6005 70.4033 24.5025 70.7737 24.4652 71.2714H26.0612C26.0332 70.7737 25.9818 70.4639 25.9072 70.342ZM28.9078 65.3571H30.7558V73.2006C30.7558 73.6794 30.8118 74.0504 30.9238 74.3131C31.0358 74.5757 31.2132 74.8059 31.4558 75.0031L29.9158 76.0874C29.2438 75.5523 28.9078 74.7918 28.9078 73.8061V65.3571ZM37.4117 68.3284V74.1018C37.4677 74.4306 37.6871 74.7214 38.0697 74.9749L36.8097 76.0592C36.6884 75.9747 36.5391 75.8247 36.3617 75.6086C36.1844 75.3925 36.0351 75.172 35.9137 74.9467C35.1391 75.7071 34.5977 76.0874 34.2897 76.0874C34.0657 76.0874 33.7017 75.8388 33.1977 75.341C32.7031 74.8433 32.3951 74.4398 32.2737 74.13C32.1524 73.8202 32.0917 73.1535 32.0917 72.1304C32.0917 71.0976 32.1524 70.4265 32.2737 70.1167C32.3951 69.8069 32.7031 69.4035 33.1977 68.9057C33.7017 68.408 34.0657 68.1594 34.2897 68.1594C34.6164 68.1594 35.1437 68.4974 35.8717 69.1733L36.0397 68.3284H37.4117ZM35.4657 70.4829C35.4004 70.361 35.2651 70.2386 35.0597 70.1167C34.8637 69.9851 34.7144 69.9196 34.6117 69.9196C34.5091 69.9196 34.3971 69.9808 34.2757 70.1027C34.1637 70.2245 34.0891 70.3371 34.0517 70.4406C33.9304 70.6096 33.8697 71.1729 33.8697 72.1304C33.8697 73.0788 33.9304 73.6371 34.0517 73.8061C34.0891 73.8998 34.1637 74.0125 34.2757 74.1441C34.3971 74.2659 34.5091 74.3271 34.6117 74.3271C34.7144 74.3271 34.8637 74.2659 35.0597 74.1441C35.2651 74.0125 35.3957 73.8955 35.4517 73.792C35.5171 73.6886 35.5544 73.1394 35.5637 72.1445C35.5637 71.1496 35.5311 70.5955 35.4657 70.4829ZM40.4313 65.8922C40.5526 65.8922 40.8326 66.0845 41.2713 66.4696C41.7099 66.8547 41.9293 67.1222 41.9293 67.2722C41.9293 67.4131 41.5233 67.8686 40.7113 68.6382C39.8993 69.4078 39.4466 69.7929 39.3533 69.7929C39.3253 69.7929 39.2599 69.7457 39.1573 69.652C39.0639 69.5584 39.0173 69.488 39.0173 69.4408C39.0173 69.3845 39.2366 68.9388 39.6753 68.1031C39.1619 67.6996 38.9053 67.4222 38.9053 67.2722C38.9053 67.1222 39.1293 66.8547 39.5773 66.4696C40.0253 66.0845 40.3099 65.8922 40.4313 65.8922ZM47.9726 73.6371C47.9726 73.928 47.6132 74.4116 46.8946 75.0876C46.1759 75.7543 45.6392 76.0874 45.2846 76.0874C44.9392 76.0874 44.5052 75.9135 43.9826 75.5663C43.4692 75.2192 43.0866 74.8108 42.8346 74.3412L44.2766 73.3414C44.7432 73.9984 45.0839 74.3271 45.2986 74.3271C45.4572 74.3271 45.6532 74.2476 45.8866 74.0878C46.1199 73.928 46.2366 73.778 46.2366 73.6371C46.2366 73.5998 46.1246 73.5196 45.9006 73.3978C45.6766 73.2661 45.4012 73.1069 45.0746 72.919C44.7572 72.7218 44.4399 72.5057 44.1226 72.2712C43.8052 72.0269 43.5346 71.7312 43.3106 71.3841C43.0866 71.0369 42.9746 70.6849 42.9746 70.328C42.9746 69.971 43.2919 69.5204 43.9266 68.9761C44.5612 68.4318 45.0466 68.1594 45.3826 68.1594C45.7279 68.1594 46.1572 68.3333 46.6706 68.6804C47.1932 69.0276 47.5806 69.4359 47.8326 69.9055L46.3906 70.9053C45.9239 70.2484 45.5832 69.9196 45.3686 69.9196C45.2566 69.9196 45.1166 69.9851 44.9486 70.1167C44.7899 70.2386 44.7106 70.3512 44.7106 70.4547C44.7106 70.5582 44.8786 70.7174 45.2146 70.9335C45.5599 71.1496 45.9332 71.3749 46.3346 71.6094C46.7452 71.8347 47.1186 72.1353 47.4546 72.5106C47.7999 72.8767 47.9726 73.252 47.9726 73.6371ZM56.0957 75.9184V68.7508C56.0957 68.591 56.0631 68.46 55.9977 68.3565C55.9417 68.2439 55.8437 68.1171 55.7037 67.9763C55.5637 67.8355 55.4517 67.7651 55.3677 67.7651C55.1811 67.7651 54.9337 67.9531 54.6257 68.3284C54.6537 68.5629 54.6677 68.812 54.6677 69.0747V75.9184H52.7357V69.8914C52.7357 69.0937 52.6797 68.5347 52.5677 68.2157C52.4651 67.8967 52.2411 67.5165 51.8957 67.0751L53.5757 65.8922C53.8744 66.1084 54.0891 66.3661 54.2197 66.6667C54.8917 66.1506 55.3677 65.8922 55.6477 65.8922C55.9277 65.8922 56.4551 66.2535 57.2297 66.9765C58.0044 66.2535 58.5504 65.8922 58.8677 65.8922C59.1011 65.8922 59.4977 66.1408 60.0577 66.6386C60.6271 67.1265 60.9815 67.4743 61.1215 67.6806C61.2615 67.8778 61.3315 68.1404 61.3315 68.4692V75.9184H59.3997V68.7508C59.3997 68.5727 59.3671 68.4361 59.3017 68.3425C59.2364 68.239 59.1244 68.1171 58.9657 67.9763C58.8164 67.8355 58.6811 67.7651 58.5597 67.7651C58.4477 67.7651 58.2657 67.92 58.0137 68.2298C58.0231 68.2769 58.0277 68.3565 58.0277 68.4692V75.9184H56.0957ZM67.777 68.3284V74.1018C67.833 74.4306 68.0521 74.7214 68.435 74.9749L67.175 76.0592C67.0539 75.9747 66.9041 75.8247 66.727 75.6086C66.5499 75.3925 66.4001 75.172 66.279 74.9467C65.5041 75.7071 64.963 76.0874 64.655 76.0874C64.431 76.0874 64.067 75.8388 63.563 75.341C63.0681 74.8433 62.7601 74.4398 62.639 74.13C62.5179 73.8202 62.457 73.1535 62.457 72.1304C62.457 71.0976 62.5179 70.4265 62.639 70.1167C62.7601 69.8069 63.0681 69.4035 63.563 68.9057C64.067 68.408 64.431 68.1594 64.655 68.1594C64.9819 68.1594 65.509 68.4974 66.237 69.1733L66.405 68.3284H67.777ZM65.831 70.4829C65.7659 70.361 65.6301 70.2386 65.425 70.1167C65.229 69.9851 65.0799 69.9196 64.977 69.9196C64.8741 69.9196 64.7621 69.9808 64.641 70.1027C64.529 70.2245 64.4541 70.3371 64.417 70.4406C64.2959 70.6096 64.235 71.1729 64.235 72.1304C64.235 73.0788 64.2959 73.6371 64.417 73.8061C64.4541 73.8998 64.529 74.0125 64.641 74.1441C64.7621 74.2659 64.8741 74.3271 64.977 74.3271C65.0799 74.3271 65.229 74.2659 65.425 74.1441C65.6301 74.0125 65.761 73.8955 65.817 73.792C65.8821 73.6886 65.9199 73.1394 65.929 72.1445C65.929 71.1496 65.8961 70.5955 65.831 70.4829ZM71.4967 73.778C71.5619 73.8906 71.6927 74.0125 71.8887 74.1441C72.0939 74.2659 72.2619 74.3271 72.3928 74.3271C72.5328 74.3271 72.705 74.1533 72.9108 73.8061C73.0319 73.59 73.0928 73.0316 73.0928 72.1304C73.0928 71.22 73.0319 70.6567 72.9108 70.4406C72.8548 70.3371 72.7708 70.2245 72.6588 70.1027C72.5559 69.9808 72.453 69.9196 72.3508 69.9196C72.257 69.9196 72.1079 69.9851 71.9028 70.1167C71.697 70.2386 71.5619 70.3561 71.4967 70.4688C71.431 70.5814 71.3988 71.1306 71.3988 72.1163C71.3988 73.102 71.431 73.6561 71.4967 73.778ZM74.6888 74.13C74.567 74.4398 74.2548 74.8433 73.7508 75.341C73.2559 75.8388 72.8828 76.0874 72.6308 76.0874C72.3788 76.0874 71.9679 75.8339 71.3988 75.3269V76.552C71.3988 77.0308 71.4548 77.4018 71.5667 77.6645C71.6787 77.9271 71.8559 78.1574 72.0988 78.3545L70.5588 79.4388C69.8868 78.9037 69.5508 78.1433 69.5508 77.1576V71.1729C69.5508 70.2808 69.317 69.638 68.8508 69.2437L70.3908 68.1594C70.6519 68.3755 70.8948 68.7135 71.1188 69.1733C71.8468 68.4974 72.3648 68.1594 72.6728 68.1594C72.8968 68.1594 73.2559 68.408 73.7508 68.9057C74.2548 69.4035 74.567 69.8069 74.6888 70.1167C74.8099 70.4265 74.8708 71.0976 74.8708 72.1304C74.8708 73.1535 74.8099 73.8202 74.6888 74.13ZM81.4733 74.2567C81.6224 74.3976 81.7393 74.468 81.8233 74.468C81.9073 74.468 82.0193 74.3976 82.1593 74.2567C82.3084 74.1159 82.4155 73.9892 82.4813 73.8765C82.6024 73.6702 82.6633 73.088 82.6633 72.1304C82.6633 71.1729 82.6024 70.5863 82.4813 70.3702C82.4155 70.2576 82.3084 70.1308 82.1593 69.99C82.0193 69.8492 81.9073 69.7788 81.8233 69.7788C81.7393 69.7788 81.6224 69.8492 81.4733 69.99C81.3333 70.1308 81.2304 70.2576 81.1653 70.3702C81.0435 70.5765 80.9833 71.1588 80.9833 72.1163C80.9833 73.0739 81.0435 73.6604 81.1653 73.8765C81.2304 73.9892 81.3333 74.1159 81.4733 74.2567ZM83.0833 75.3974C82.5135 75.8572 82.0935 76.0874 81.8233 76.0874C81.5524 76.0874 81.1275 75.8572 80.5493 75.3974C79.9795 74.9376 79.6295 74.5947 79.4993 74.3694C79.3033 74.0223 79.2053 73.271 79.2053 72.1163C79.2053 70.9616 79.3033 70.2153 79.4993 69.8774C79.6295 69.652 79.9795 69.3092 80.5493 68.8494C81.1275 68.3896 81.5524 68.1594 81.8233 68.1594C82.0935 68.1594 82.5135 68.3896 83.0833 68.8494C83.6615 69.3092 84.0164 69.652 84.1473 69.8774C84.3433 70.2153 84.4413 70.9616 84.4413 72.1163C84.4413 73.271 84.3433 74.0223 84.1473 74.3694C84.0164 74.5947 83.6615 74.9376 83.0833 75.3974ZM85.0652 70.3561V69.3L85.7652 69.131C85.7652 68.0798 85.8169 67.4363 85.9192 67.2018C86.0221 66.9674 86.3769 66.6012 86.9832 66.1035C87.5901 65.6057 88.0332 65.3571 88.3132 65.3571C88.6029 65.3571 88.9621 65.4931 89.3912 65.7655C89.8209 66.0282 90.1429 66.3337 90.3572 66.6808L88.9852 67.6102C88.7241 67.1878 88.5001 66.9765 88.3132 66.9765C88.2201 66.9765 88.1129 67.0378 87.9912 67.1596C87.8701 67.2814 87.7769 67.4082 87.7112 67.5398C87.6461 67.6714 87.6132 68.1171 87.6132 68.8776H89.6012V70.3561H87.6132V75.9184H85.7652V70.3561H85.0652ZM98.5423 74.2286V75.9184H93.4323V66.0612H95.3643V74.2286H98.5423ZM99.2375 68.3284H101.085V73.2006C101.085 73.6794 101.141 74.0504 101.253 74.3131C101.365 74.5757 101.543 74.8059 101.785 75.0031L100.245 76.0874C99.5734 75.5523 99.2375 74.7918 99.2375 73.8061V68.3284ZM100.189 65.3853C100.292 65.3853 100.521 65.5402 100.875 65.85C101.23 66.1506 101.407 66.3569 101.407 66.4696C101.407 66.5731 101.225 66.7794 100.861 67.0892C100.507 67.399 100.278 67.5539 100.175 67.5539C100.082 67.5539 99.8583 67.4039 99.5035 67.1033C99.1492 66.7935 98.9715 66.5871 98.9715 66.4837C98.9715 66.371 99.1492 66.1598 99.5035 65.85C99.8675 65.5402 100.096 65.3853 100.189 65.3853ZM101.991 70.3561V69.3L102.691 69.131C102.691 68.0798 102.742 67.4363 102.845 67.2018C102.948 66.9674 103.302 66.6012 103.909 66.1035C104.516 65.6057 104.959 65.3571 105.239 65.3571C105.528 65.3571 105.888 65.4931 106.317 65.7655C106.746 66.0282 107.068 66.3337 107.283 66.6808L105.911 67.6102C105.65 67.1878 105.426 66.9765 105.239 66.9765C105.146 66.9765 105.038 67.0378 104.917 67.1596C104.796 67.2814 104.702 67.4082 104.637 67.5398C104.572 67.6714 104.539 68.1171 104.539 68.8776H106.527V70.3561H104.539V75.9184H102.691V70.3561H101.991ZM112.304 72.1022V72.6092H108.916C108.916 73.1725 108.986 73.6182 109.126 73.9469C109.173 74.0596 109.257 74.1771 109.378 74.299C109.499 74.4116 109.625 74.468 109.756 74.468C109.887 74.468 110.05 74.3553 110.246 74.13C110.442 73.9047 110.596 73.6323 110.708 73.3133L112.15 74.3412C111.898 74.8108 111.511 75.2192 110.988 75.5663C110.475 75.9135 110.059 76.0874 109.742 76.0874C109.425 76.0874 108.963 75.8388 108.356 75.341C107.759 74.8433 107.395 74.4588 107.264 74.1863C107.133 73.9047 107.068 73.2196 107.068 72.1304C107.068 71.032 107.133 70.3469 107.264 70.0745C107.395 69.7929 107.759 69.4035 108.356 68.9057C108.963 68.408 109.406 68.1594 109.686 68.1594C109.966 68.1594 110.405 68.408 111.002 68.9057C111.609 69.4035 111.977 69.7929 112.108 70.0745C112.239 70.3469 112.304 71.0229 112.304 72.1022ZM110.358 70.342C110.293 70.2104 110.185 70.0837 110.036 69.9618C109.896 69.84 109.761 69.7788 109.63 69.7788C109.509 69.7788 109.369 69.9055 109.21 70.159C109.051 70.4033 108.953 70.7737 108.916 71.2714H110.512C110.484 70.7737 110.433 70.4639 110.358 70.342Z" fill="#282828"/>
</g>
</g>
<defs>
<filter id="filter0_d" x="125.572" y="25.3792" width="30.6826" height="30.8148" filterUnits="userSpaceOnUse" color-interpolation-filters="sRGB">
<feFlood flood-opacity="0" result="BackgroundImageFix"/>
<feColorMatrix in="SourceAlpha" type="matrix" values="0 0 0 0 0 0 0 0 0 0 0 0 0 0 0 0 0 0 127 0" result="hardAlpha"/>
<feOffset dy="4"/>
<feGaussianBlur stdDeviation="2"/>
<feColorMatrix type="matrix" values="0 0 0 0 0 0 0 0 0 0 0 0 0 0 0 0 0 0 0.25 0"/>
<feBlend mode="normal" in2="BackgroundImageFix" result="effect1_dropShadow"/>
<feBlend mode="normal" in="SourceGraphic" in2="effect1_dropShadow" result="shape"/>
</filter>
<filter id="filter1_i" x="2.52606" y="65.3571" width="109.778" height="15.0816" filterUnits="userSpaceOnUse" color-interpolation-filters="sRGB">
<feFlood flood-opacity="0" result="BackgroundImageFix"/>
<feBlend mode="normal" in="SourceGraphic" in2="BackgroundImageFix" result="shape"/>
<feColorMatrix in="SourceAlpha" type="matrix" values="0 0 0 0 0 0 0 0 0 0 0 0 0 0 0 0 0 0 127 0" result="hardAlpha"/>
<feOffset dy="1"/>
<feGaussianBlur stdDeviation="0.5"/>
<feComposite in2="hardAlpha" operator="arithmetic" k2="-1" k3="1"/>
<feColorMatrix type="matrix" values="0 0 0 0 0.6625 0 0 0 0 0.6625 0 0 0 0 0.6625 0 0 0 0.25 0"/>
<feBlend mode="normal" in2="shape" result="effect1_innerShadow"/>
</filter>
<radialGradient id="paint0_radial" cx="0" cy="0" r="1" gradientUnits="userSpaceOnUse" gradientTransform="translate(140.913 86.523) rotate(90) scale(3.65037 11.3413)">
<stop stop-opacity="0.2"/>
<stop offset="1" stop-opacity="0"/>
</radialGradient>
<clipPath id="clip0">
<rect width="210" height="90" fill="white"/>
</clipPath>
</defs>
</svg>
