<svg width="293" height="95" viewBox="0 0 293 95" fill="none" xmlns="http://www.w3.org/2000/svg">
<path d="M1.63989 58C1.63989 77.9322 -11.6399 85 38 85C73 101 279.64 99.0472 279.64 69.5C289.246 44.8694 268.712 25.0572 235.64 16.5C175.64 10.5 154.269 10.5 117.14 10.5C30 10.5 1.63989 16.5 1.63989 58Z" fill="#FFC0C0"/>
<path d="M283.27 27.3041C275.301 18.313 262.023 11.2627 245.564 6.99677L127.127 1C83.5406 1.00031 54.7668 2.50673 36.8867 9.15613C27.9684 12.4727 21.8029 17.0549 17.8561 23.3363C13.9044 29.6255 12.1399 37.6767 12.1399 48C12.1399 51.9774 11.6147 55.4588 11.1652 58.439C11.0465 59.2259 10.9331 59.9778 10.836 60.6947C10.3644 64.1771 10.2964 66.742 11.6189 68.6941C12.9384 70.6417 15.7462 72.1208 21.4606 73.0912C27.1518 74.0577 35.5933 74.5 48 74.5H48.1089L48.2079 74.5452C52.5173 76.5152 59.5171 78.2267 68.5097 79.6457C77.49 81.0628 88.417 82.1823 100.555 82.9843C124.83 84.5882 153.924 84.9207 181.926 83.8306C209.931 82.7402 236.824 80.2275 256.705 76.1473C266.65 74.1062 274.809 71.6791 280.47 68.858C283.3 67.4474 285.479 65.9513 286.945 64.3782C288.406 62.8103 289.14 61.1876 289.14 59.5V59.4059L289.174 59.3183C293.903 47.1926 291.223 36.2776 283.27 27.3041ZM222.895 4.8477C189.455 1.88652 169.734 1.20426 147.832 1.04706L222.895 4.8477Z" fill="white" stroke="black"/>
</svg>
