<svg width="40" height="40" viewBox="0 0 40 40" fill="none" xmlns="http://www.w3.org/2000/svg">
<g clip-path="url(#clip0)">
<path d="M-10.04 0H50.12V40.1067H-10.04V0Z" fill="#012169"/>
<path d="M-10.04 0V4.48067L43.3931 40.1067H50.12V35.626L-3.31316 0H-10.04ZM50.12 0V4.48067L-3.31316 40.1067H-10.04V35.626L43.3931 0H50.12Z" fill="white"/>
<path d="M15.0286 0V40.1067H25.0513V0H15.0286ZM-10.04 13.3715V26.7352H50.12V13.3715H-10.04Z" fill="white"/>
<path d="M-10.04 16.0427V24.064H50.12V16.0427H-10.04ZM17.032 0V40.1067H23.048V0H17.032ZM-10.04 40.1067L10.0113 26.7352H14.4998L-5.55741 40.1067H-10.04ZM-10.04 0L10.0113 13.3715H5.52871L-10.04 2.99233V0ZM25.586 13.3715L45.6373 0H50.12L30.0686 13.3715H25.586ZM50.12 40.1067L30.0686 26.7352H34.5512L50.12 37.1143V40.1067Z" fill="#C8102E"/>
</g>
<defs>
<clipPath id="clip0">
<rect width="40" height="40" rx="20" fill="white"/>
</clipPath>
</defs>
</svg>
