<svg width="1389" height="216" viewBox="0 0 1389 216" fill="none" xmlns="http://www.w3.org/2000/svg">
<path d="M14.8715 12.4906C14.8715 12.4906 14.8839 12.4694 14.9239 12.4297C14.9653 12.3885 15.029 12.3345 15.1228 12.2701C15.3131 12.1394 15.591 11.9905 15.9752 11.8297C16.7443 11.5078 17.8385 11.1797 19.2731 10.8525C22.1363 10.1994 26.2188 9.58007 31.4604 8.99698C41.9355 7.8317 56.9276 6.82308 75.8054 5.96008C113.555 4.23434 166.771 3.09385 230.307 2.43764C357.375 1.12525 525.68 1.75018 693.99 3.50015C862.298 5.25012 1030.61 8.12505 1157.68 11.3124C1221.21 12.9061 1274.44 14.5778 1312.2 16.2258C1331.08 17.0499 1346.08 17.8677 1356.57 18.6663C1361.82 19.0657 1365.93 19.4593 1368.82 19.8446C1370.26 20.0375 1371.39 20.2258 1372.19 20.4074C1372.59 20.4984 1372.89 20.5833 1373.11 20.6593C1373.29 20.7242 1373.35 20.7643 1373.35 20.763C1374.04 21.3777 1374.79 22.5182 1375.59 24.2391C1376.37 25.9524 1377.16 28.1529 1377.92 30.785C1379.45 36.0475 1380.88 42.9515 1382.15 50.9538C1384.69 66.9535 1386.56 87.2556 1387.25 107.409C1387.94 127.569 1387.44 147.535 1385.24 162.874C1384.15 170.55 1382.64 177.014 1380.66 181.751C1378.67 186.545 1376.32 189.297 1373.73 190.039C1373.07 190.225 1371.16 190.475 1367.92 190.766C1364.72 191.053 1360.35 191.373 1354.87 191.722C1343.9 192.419 1328.53 193.23 1309.38 194.123C1271.09 195.909 1217.69 198.02 1154.22 200.196C1027.3 204.548 860.133 209.157 693.046 211.938C525.956 214.719 358.956 215.672 232.359 212.711C169.057 211.231 115.878 208.773 77.8457 205.078C58.8248 203.23 43.6259 201.076 32.8547 198.59C27.4654 197.345 23.2253 196.027 20.1818 194.641C17.079 193.228 15.4481 191.845 14.9196 190.607C4.00703 165.062 0.625705 126.49 1.687 91.2178C2.21706 73.6011 3.85395 56.8505 6.19685 43.0188C8.54628 29.1485 11.5876 18.3286 14.8715 12.4904L14.8715 12.4906Z" fill="#1D3DB0" stroke="black" stroke-width="2"/>
</svg>
