<svg width="45" height="44" viewBox="0 0 45 44" fill="none" xmlns="http://www.w3.org/2000/svg">
<path d="M33.6393 13.0467L33.6415 13.0489C33.9744 13.3816 34.2385 13.7767 34.4186 14.2116C34.5988 14.6465 34.6916 15.1126 34.6916 15.5833C34.6916 16.054 34.5988 16.5201 34.4186 16.9549C34.2385 17.3898 33.9744 17.7849 33.6415 18.1177L33.6404 18.1187L32.4088 19.3503C32.0414 19.5477 31.5905 19.7971 31.076 20.0955C29.7251 20.8793 27.8865 22.0304 25.9561 23.4983C23.8414 25.1062 21.1383 27.4473 18.9796 30.4557C17.6346 28.5368 16.3278 26.4416 15.3039 24.7255C14.7402 23.7808 14.2759 22.974 13.9547 22.4072C13.7943 22.1242 13.6702 21.9021 13.5878 21.7539C13.5467 21.6798 13.516 21.6242 13.4965 21.5888L13.4758 21.551L13.4723 21.5447L13.4718 21.5438L13.4718 21.5437C13.4718 21.5437 13.4717 21.5436 13.4717 21.5436C13.1746 20.9994 12.8012 20.5005 12.3628 20.0621L10.4194 18.1187C9.74698 17.4463 9.3692 16.5342 9.3692 15.5833C9.3692 14.6323 9.74698 13.7202 10.4194 13.0478C11.0919 12.3753 12.0039 11.9976 12.9549 11.9976C13.9059 11.9976 14.8179 12.3753 15.4904 13.0478L20.0866 8.4516L15.4904 13.0478L17.4337 14.9911C19.9721 17.5295 24.0877 17.5295 26.6261 14.9911L28.5694 13.0478L28.5705 13.0467C28.9033 12.7138 29.2984 12.4497 29.7332 12.2695C30.1681 12.0893 30.6342 11.9966 31.1049 11.9966C31.5756 11.9966 32.0417 12.0893 32.4766 12.2695C32.9114 12.4497 33.3065 12.7138 33.6393 13.0467Z" stroke="#476CF2" stroke-width="13" stroke-linecap="round" stroke-linejoin="round"/>
<path d="M28.8972 15.9436L28.8987 15.9451C29.1194 16.1656 29.2944 16.4275 29.4138 16.7157C29.5332 17.0039 29.5947 17.3129 29.5947 17.6248C29.5947 17.9368 29.5332 18.2457 29.4138 18.534C29.2944 18.8222 29.1193 19.0841 28.8987 19.3046L28.898 19.3054L28.0653 20.138C27.8159 20.2721 27.5109 20.4409 27.1635 20.6424C26.2407 21.1778 24.9846 21.9642 23.6656 22.9672C22.2407 24.0506 20.4197 25.6249 18.9511 27.6474C18.0548 26.3626 17.1863 24.9692 16.5025 23.8232C16.1185 23.1796 15.8022 22.63 15.5834 22.2439C15.4742 22.0511 15.3896 21.8999 15.3336 21.799L15.2715 21.6866L15.2574 21.661L15.2551 21.6568C15.255 21.6566 15.2549 21.6565 15.2548 21.6563L15.2547 21.6561L15.2547 21.6561C15.049 21.2793 14.7905 20.9339 14.4869 20.6304L13.1619 19.3054C12.7162 18.8597 12.4658 18.2552 12.4658 17.6248C12.4658 16.9945 12.7162 16.39 13.1619 15.9443C13.6076 15.4986 14.2121 15.2482 14.8424 15.2482C15.4727 15.2482 16.0773 15.4986 16.523 15.9443L17.848 17.2693C19.6053 19.0267 22.4546 19.0267 24.2119 17.2693L25.5369 15.9443L25.5377 15.9436C25.7582 15.7229 26.0201 15.5479 26.3083 15.4285C26.5965 15.309 26.9055 15.2476 27.2174 15.2476C27.5294 15.2476 27.8383 15.309 28.1266 15.4285C28.4148 15.5479 28.6767 15.7229 28.8972 15.9436Z" stroke="#F24747" stroke-width="9" stroke-linecap="round" stroke-linejoin="round"/>
</svg>
