<svg width="35" height="35" viewBox="0 0 35 35" fill="none" xmlns="http://www.w3.org/2000/svg">
<path d="M28.625 14.5833C28.625 18.8836 25.8123 23.1356 22.6106 26.5151C21.0507 28.1617 19.4839 29.5116 18.3049 30.4504C18.009 30.686 17.7386 30.8949 17.5 31.0753C17.2614 30.8949 16.991 30.686 16.6951 30.4504C15.5161 29.5116 13.9493 28.1617 12.3894 26.5151C9.18772 23.1356 6.375 18.8836 6.375 14.5833C6.375 11.6328 7.54709 8.80309 9.63344 6.71675C11.7198 4.63041 14.5495 3.45831 17.5 3.45831C20.4505 3.45831 23.2802 4.63041 25.3666 6.71675C27.4529 8.80309 28.625 11.6328 28.625 14.5833Z" stroke="black" stroke-width="4" stroke-linecap="round" stroke-linejoin="round"/>
<path d="M17.5 18.9583C19.9162 18.9583 21.875 16.9996 21.875 14.5833C21.875 12.1671 19.9162 10.2083 17.5 10.2083C15.0838 10.2083 13.125 12.1671 13.125 14.5833C13.125 16.9996 15.0838 18.9583 17.5 18.9583Z" stroke="black" stroke-width="3" stroke-linecap="round" stroke-linejoin="round"/>
</svg>
