<svg width="301" height="114" viewBox="0 0 301 114" fill="none" xmlns="http://www.w3.org/2000/svg">
<path d="M291 68.0001C291 85.1018 285.817 92.0831 259.5 103.5C231.849 115.496 197.011 113.5 154 113.5C124.225 113.5 104 110.5 74 110.5C28 106 0.5 98.1909 0.5 75.5599C0.5 55.6997 13.3241 33.7039 47.5 22.0599C73.6737 13.1423 110.092 43.0596 146.5 43.0596C199 54.0596 232.032 19.0851 259.5 30.4589C287.289 41.9655 291 50.3632 291 68.0001Z" fill="url(#paint0_radial)"/>
<path d="M301 48.0001C301 65.1018 295.817 72.0831 269.5 83.5001C241.849 95.4956 207.011 93.5001 164 93.5001C134.225 93.5001 114 90.5001 84 90.5001C38 86.0001 10.5 78.1909 10.5 55.5599C10.5 35.6997 23.3241 13.7039 57.5 2.05989C83.6737 -6.8577 120.092 23.0596 156.5 23.0596C209 34.0596 242.032 -0.914932 269.5 10.4589C297.289 21.9655 301 30.3632 301 48.0001Z" fill="#FFC0C0"/>
<path d="M131.616 78.344C131.616 78.344 131.612 79.764 131.604 82.604C131.604 83.612 131.544 84.216 131.424 84.416C131.336 84.624 131.032 84.94 130.512 85.364C129.992 85.788 129.6 86 129.336 86C129.072 86 128.732 85.86 128.316 85.58C127.9 85.308 127.588 84.992 127.38 84.632L128.616 83.78L128.736 83.936C129.032 84.312 129.232 84.5 129.336 84.5C129.448 84.5 129.564 84.448 129.684 84.344C129.812 84.24 129.9 84.136 129.948 84.032C130.004 83.928 130.032 83.552 130.032 82.904V78.86C130.032 78.452 129.984 78.136 129.888 77.912C129.792 77.688 129.64 77.492 129.432 77.324L130.752 76.4C131.328 76.856 131.616 77.504 131.616 78.344ZM130.56 74.024C130.648 74.024 130.844 74.156 131.148 74.42C131.452 74.676 131.604 74.852 131.604 74.948C131.604 75.036 131.448 75.212 131.136 75.476C130.832 75.74 130.636 75.872 130.548 75.872C130.468 75.872 130.276 75.744 129.972 75.488C129.668 75.224 129.516 75.048 129.516 74.96C129.516 74.864 129.668 74.684 129.972 74.42C130.284 74.156 130.48 74.024 130.56 74.024ZM132.691 76.532H134.275V80.996C134.275 81.132 134.339 81.276 134.467 81.428C134.595 81.572 134.715 81.644 134.827 81.644C134.939 81.644 135.171 81.48 135.523 81.152V76.532H137.107V83H135.883L135.739 82.292C135.139 82.86 134.719 83.144 134.479 83.144C134.239 83.144 133.879 82.924 133.399 82.484C132.927 82.036 132.691 81.596 132.691 81.164V76.532ZM142.41 81.056C142.41 81.304 142.102 81.716 141.486 82.292C140.87 82.86 140.41 83.144 140.106 83.144C139.81 83.144 139.438 82.996 138.99 82.7C138.55 82.404 138.222 82.056 138.006 81.656L139.242 80.804C139.642 81.364 139.934 81.644 140.118 81.644C140.254 81.644 140.422 81.576 140.622 81.44C140.822 81.304 140.922 81.176 140.922 81.056C140.922 81.024 140.826 80.956 140.634 80.852C140.442 80.74 140.206 80.604 139.926 80.444C139.654 80.276 139.382 80.092 139.11 79.892C138.838 79.684 138.606 79.432 138.414 79.136C138.222 78.84 138.126 78.54 138.126 78.236C138.126 77.932 138.398 77.548 138.942 77.084C139.486 76.62 139.902 76.388 140.19 76.388C140.486 76.388 140.854 76.536 141.294 76.832C141.742 77.128 142.074 77.476 142.29 77.876L141.054 78.728C140.654 78.168 140.362 77.888 140.178 77.888C140.082 77.888 139.962 77.944 139.818 78.056C139.682 78.16 139.614 78.256 139.614 78.344C139.614 78.432 139.758 78.568 140.046 78.752C140.342 78.936 140.662 79.128 141.006 79.328C141.358 79.52 141.678 79.776 141.966 80.096C142.262 80.408 142.41 80.728 142.41 81.056ZM145.016 77.792V80.444C145.016 80.82 145.144 81.164 145.4 81.476C145.656 81.788 146.008 82.036 146.456 82.22L145.136 83.144C144.656 82.92 144.252 82.612 143.924 82.22C143.596 81.82 143.432 81.4 143.432 80.96V77.792H142.832V76.892L143.432 76.748C143.416 76.356 143.368 76.048 143.288 75.824C143.208 75.592 143.056 75.368 142.832 75.152L144.152 74.228C144.728 74.684 145.016 75.332 145.016 76.172V76.532H146.36V77.792H145.016ZM154.77 83H153.186V78.536C153.186 78.4 153.114 78.26 152.97 78.116C152.826 77.964 152.702 77.888 152.598 77.888C152.502 77.888 152.342 77.984 152.118 78.176V83H150.534V78.86C150.534 78.452 150.486 78.136 150.39 77.912C150.294 77.688 150.142 77.492 149.934 77.324L151.254 76.4C151.518 76.624 151.714 76.852 151.842 77.084C152.362 76.62 152.722 76.388 152.922 76.388C153.042 76.388 153.238 76.476 153.51 76.652C153.782 76.828 154.03 77.04 154.254 77.288C154.886 76.688 155.322 76.388 155.562 76.388C155.81 76.388 156.178 76.612 156.666 77.06C157.162 77.5 157.41 77.936 157.41 78.368V80.684C157.41 81.092 157.458 81.408 157.554 81.632C157.65 81.856 157.802 82.052 158.01 82.22L156.69 83.144C156.114 82.688 155.826 82.04 155.826 81.2V78.536C155.826 78.4 155.754 78.26 155.61 78.116C155.466 77.964 155.346 77.888 155.25 77.888C155.162 77.888 154.994 77.988 154.746 78.188C154.762 78.268 154.77 78.328 154.77 78.368V83ZM163.111 76.532V81.452C163.159 81.732 163.347 81.98 163.675 82.196L162.595 83.12C162.491 83.048 162.363 82.92 162.211 82.736C162.059 82.552 161.931 82.364 161.827 82.172C161.163 82.82 160.699 83.144 160.435 83.144C160.243 83.144 159.931 82.932 159.499 82.508C159.075 82.084 158.811 81.74 158.707 81.476C158.603 81.212 158.551 80.644 158.551 79.772C158.551 78.892 158.603 78.32 158.707 78.056C158.811 77.792 159.075 77.448 159.499 77.024C159.931 76.6 160.243 76.388 160.435 76.388C160.715 76.388 161.167 76.676 161.791 77.252L161.935 76.532H163.111ZM161.443 78.368C161.387 78.264 161.271 78.16 161.095 78.056C160.927 77.944 160.799 77.888 160.711 77.888C160.623 77.888 160.527 77.94 160.423 78.044C160.327 78.148 160.263 78.244 160.231 78.332C160.127 78.476 160.075 78.956 160.075 79.772C160.075 80.58 160.127 81.056 160.231 81.2C160.263 81.28 160.327 81.376 160.423 81.488C160.527 81.592 160.623 81.644 160.711 81.644C160.799 81.644 160.927 81.592 161.095 81.488C161.271 81.376 161.383 81.276 161.431 81.188C161.487 81.1 161.519 80.632 161.527 79.784C161.527 78.936 161.499 78.464 161.443 78.368ZM166.216 83H164.632V78.86C164.632 78.452 164.58 78.136 164.476 77.912C164.38 77.68 164.232 77.48 164.032 77.312L165.352 76.388C165.64 76.628 165.86 76.908 166.012 77.228C166.604 76.668 167.02 76.388 167.26 76.388C167.42 76.388 167.664 76.536 167.992 76.832C168.32 77.128 168.512 77.452 168.568 77.804L167.284 78.728C167.276 78.536 167.228 78.348 167.14 78.164C167.06 77.98 166.988 77.888 166.924 77.888C166.788 77.888 166.552 78.056 166.216 78.392V83ZM170.809 83H169.225V78.86C169.225 78.452 169.173 78.136 169.069 77.912C168.973 77.68 168.825 77.48 168.625 77.312L169.945 76.388C170.233 76.628 170.453 76.908 170.605 77.228C171.197 76.668 171.613 76.388 171.853 76.388C172.013 76.388 172.257 76.536 172.585 76.832C172.913 77.128 173.105 77.452 173.161 77.804L171.877 78.728C171.869 78.536 171.821 78.348 171.733 78.164C171.653 77.98 171.581 77.888 171.517 77.888C171.381 77.888 171.145 78.056 170.809 78.392V83ZM173.519 76.532H175.103V80.684C175.103 81.092 175.151 81.408 175.247 81.632C175.343 81.856 175.495 82.052 175.703 82.22L174.383 83.144C173.807 82.688 173.519 82.04 173.519 81.2V76.532ZM174.335 74.024C174.423 74.024 174.619 74.156 174.923 74.42C175.227 74.676 175.379 74.852 175.379 74.948C175.379 75.036 175.223 75.212 174.911 75.476C174.607 75.74 174.411 75.872 174.323 75.872C174.243 75.872 174.051 75.744 173.747 75.488C173.443 75.224 173.291 75.048 173.291 74.96C173.291 74.864 173.443 74.684 173.747 74.42C174.059 74.156 174.255 74.024 174.335 74.024ZM180.547 79.748V80.18H177.643C177.643 80.66 177.703 81.04 177.823 81.32C177.863 81.416 177.935 81.516 178.039 81.62C178.143 81.716 178.251 81.764 178.363 81.764C178.475 81.764 178.615 81.668 178.783 81.476C178.951 81.284 179.083 81.052 179.179 80.78L180.415 81.656C180.199 82.056 179.867 82.404 179.419 82.7C178.979 82.996 178.623 83.144 178.351 83.144C178.079 83.144 177.683 82.932 177.163 82.508C176.651 82.084 176.339 81.756 176.227 81.524C176.115 81.284 176.059 80.7 176.059 79.772C176.059 78.836 176.115 78.252 176.227 78.02C176.339 77.78 176.651 77.448 177.163 77.024C177.683 76.6 178.063 76.388 178.303 76.388C178.543 76.388 178.919 76.6 179.431 77.024C179.951 77.448 180.267 77.78 180.379 78.02C180.491 78.252 180.547 78.828 180.547 79.748ZM178.879 78.248C178.823 78.136 178.731 78.028 178.603 77.924C178.483 77.82 178.367 77.768 178.255 77.768C178.151 77.768 178.031 77.876 177.895 78.092C177.759 78.3 177.675 78.616 177.643 79.04H179.011C178.987 78.616 178.943 78.352 178.879 78.248ZM181.523 77.972C181.587 77.772 181.835 77.46 182.267 77.036C182.707 76.604 183.031 76.388 183.239 76.388C183.447 76.388 183.803 76.604 184.307 77.036V76.448C184.307 76.04 184.259 75.728 184.163 75.512C184.067 75.296 183.915 75.1 183.707 74.924L185.027 74C185.603 74.456 185.891 75.1 185.891 75.932V83H184.667L184.523 82.292C183.939 82.86 183.503 83.144 183.215 83.144C183.023 83.144 182.707 82.932 182.267 82.508C181.835 82.076 181.587 81.76 181.523 81.56C181.435 81.36 181.391 80.764 181.391 79.772C181.391 78.772 181.435 78.172 181.523 77.972ZM184.223 78.368C184.167 78.264 184.051 78.16 183.875 78.056C183.707 77.944 183.579 77.888 183.491 77.888C183.403 77.888 183.307 77.94 183.203 78.044C183.107 78.148 183.035 78.256 182.987 78.368C182.939 78.48 182.915 78.948 182.915 79.772C182.915 80.588 182.939 81.052 182.987 81.164C183.035 81.268 183.107 81.376 183.203 81.488C183.307 81.592 183.399 81.644 183.479 81.644C183.567 81.644 183.695 81.592 183.863 81.488C184.039 81.376 184.155 81.28 184.211 81.2C184.259 81.088 184.291 80.764 184.307 80.228V79.784C184.307 78.936 184.279 78.464 184.223 78.368ZM188.034 81.164C188.122 81.164 188.33 81.304 188.658 81.584C188.986 81.856 189.15 82.044 189.15 82.148C189.15 82.244 188.986 82.436 188.658 82.724C188.33 83.004 188.118 83.144 188.022 83.144C187.934 83.144 187.726 83.004 187.398 82.724C187.07 82.436 186.906 82.244 186.906 82.148C186.906 82.044 187.07 81.856 187.398 81.584C187.734 81.304 187.946 81.164 188.034 81.164ZM188.826 74.456C188.762 76.864 188.73 78.304 188.73 78.776C188.73 79.24 188.79 79.624 188.91 79.928L187.77 80.732C187.522 80.428 187.374 79.776 187.326 78.776L187.17 74.456H188.826Z" fill="#FFEBEB"/>
<defs>
<radialGradient id="paint0_radial" cx="0" cy="0" r="1" gradientUnits="userSpaceOnUse" gradientTransform="translate(145.75 67.0122) rotate(90) scale(46.6123 145.25)">
<stop stop-color="#FB72BA"/>
<stop offset="1" stop-color="#FB72BA" stop-opacity="0"/>
</radialGradient>
</defs>
</svg>
