<svg width="164" height="364" viewBox="0 0 164 364" fill="none" xmlns="http://www.w3.org/2000/svg">
<path d="M24.1045 153.847C27.619 149.906 33.7042 149.611 38.391 152.044C46.5867 156.299 61.2148 161.608 82.5 161C103.754 160.393 118.923 155.36 127.56 151.501C132.453 149.315 138.546 150.363 141.39 154.906C149.529 167.906 162.135 193.231 143.5 202C121.232 212.479 118.41 268.71 118.052 282.798C117.999 284.885 118.624 286.869 119.813 288.586C129.574 302.672 174.035 369.081 136 357C93.5 343.5 50.5001 332 15.9999 357C-18.5002 382 11.5001 330.5 25.9999 286C25.9999 286 30.4999 226.5 11.5001 202C-11.9114 197.778 11.8126 167.632 24.1045 153.847Z" fill="#E89F9F"/>
<path d="M34.1045 143.847C37.619 139.906 43.7042 139.611 48.391 142.044C56.5867 146.299 71.2148 151.608 92.5 151C113.754 150.393 128.923 145.36 137.56 141.501C142.453 139.315 148.546 140.363 151.39 144.906C159.529 157.906 172.135 183.231 153.5 192C131.232 202.479 128.41 258.71 128.052 272.798C127.999 274.885 128.624 276.869 129.813 278.586C139.574 292.672 184.035 359.081 146 347C103.5 333.5 60.5001 322 25.9999 347C-8.5002 372 21.5001 320.5 35.9999 276C35.9999 276 40.4999 216.5 21.5001 192C-1.91142 187.778 21.8126 157.632 34.1045 143.847Z" fill="#FFC0C0"/>
<path d="M140 79.4995C140 112.637 104.5 137.5 71.4997 130.5C38.4996 123.5 10.9996 108 14.9996 74.9995C20.4748 29.8301 39.9997 10.4995 87.4996 10.4995C129.5 10.4995 140 46.3624 140 79.4995Z" fill="#9EB1F3"/>
<path d="M149.998 69.499C149.998 102.636 114.498 127.499 81.4984 120.499C48.4983 113.499 20.9983 97.999 24.9983 64.999C30.4734 19.8296 49.9984 0.499023 97.4983 0.499023C139.498 0.499023 149.998 36.3619 149.998 69.499Z" fill="#476CF2"/>
</svg>
