<svg width="219" height="607" viewBox="0 0 219 607" fill="none" xmlns="http://www.w3.org/2000/svg">
<path d="M29.9999 199C72.5 181 194 209.5 203 199C212 188.5 232.5 620.5 203 605C173.5 589.5 35.9999 612 29.9999 605C23.9999 598 -19.5002 404 11.9999 373.5C43.5 343 -12.5002 217 29.9999 199Z" fill="#AB7272"/>
<path d="M56.9142 233.112C87.7009 217.724 175.714 242.089 182.234 233.112C188.753 224.136 203.603 593.455 182.234 580.204C160.864 566.953 61.2605 586.188 56.9142 580.204C52.5679 574.219 21.0568 408.368 43.8752 382.293C66.6936 356.219 26.1275 248.501 56.9142 233.112Z" fill="white"/>
<path d="M96.1226 319.75C109.338 308.715 147.119 326.188 149.917 319.75C152.716 313.313 159.09 578.16 149.917 568.657C140.744 559.155 97.9883 572.949 96.1226 568.657C94.2569 564.366 80.7304 445.43 90.5254 426.731C100.32 408.033 82.9071 330.786 96.1226 319.75Z" fill="#FFFA78"/>
<path d="M203 92.5C203 140.273 173.773 180 126 180C78.2274 180 68 125 30 92.5C30 44.7274 60.2274 0.5 108 0.5C155.773 0.5 212 30.5 203 92.5Z" fill="#AB7272"/>
<path d="M180.278 91.0582C180.278 125.1 159.451 153.41 125.409 153.41C91.3663 153.41 84.0784 114.217 57 91.0582C57 57.0159 78.5397 25.5 112.582 25.5C146.624 25.5 186.691 46.8777 180.278 91.0582Z" fill="#F24747"/>
<path d="M160.553 90.6149C160.553 110.926 148.127 127.817 127.816 127.817C107.504 127.817 103.156 104.433 87 90.6149C87 70.3038 99.8515 51.5 120.163 51.5C140.474 51.5 164.38 64.2549 160.553 90.6149Z" fill="#FFFA78"/>
</svg>
