<svg width="203" height="619" viewBox="0 0 203 619" fill="none" xmlns="http://www.w3.org/2000/svg">
<path d="M17.9999 206C58.4995 186.5 250.999 184.5 191 206C131 227.5 217 675 191 612C165 549 17.9999 612 17.9999 612C17.9999 612 -22.4998 225.5 17.9999 206Z" fill="#AB7272"/>
<path d="M36.6662 223.841C65.1651 207.078 200.624 205.358 158.403 223.841C116.183 242.323 176.699 627.014 158.403 572.856C140.107 518.699 36.6662 572.856 36.6662 572.856C36.6662 572.856 8.16727 240.604 36.6662 223.841Z" fill="white"/>
<path d="M55.3327 290.242C71.8312 278.041 150.251 276.789 125.808 290.242C101.366 303.694 136.4 583.696 125.808 544.277C115.217 504.857 55.3327 544.277 55.3327 544.277C55.3327 544.277 38.8342 302.443 55.3327 290.242Z" fill="#FFFA78"/>
<path d="M191 79.5C191 127.273 98.5 204.5 104.5 166C110.5 127.5 18 127.273 18 79.5C18 31.7274 81.2274 0.5 129 0.5C176.773 0.5 191 31.7274 191 79.5Z" fill="#AB7272"/>
<path d="M171 76.6676C171 110.633 105.234 165.54 109.5 138.168C113.766 110.795 48 110.633 48 76.6676C48 42.7021 92.9536 20.5 126.919 20.5C160.885 20.5 171 42.7021 171 76.6676Z" fill="#F24747"/>
<path d="M152 71.2688C152 88.6658 118.315 116.789 120.5 102.769C122.685 88.7486 89 88.6658 89 71.2688C89 53.8718 112.025 42.5 129.422 42.5C146.819 42.5 152 53.8718 152 71.2688Z" fill="#FFFA78"/>
</svg>
