<svg width="189" height="430" viewBox="0 0 189 430" fill="none" xmlns="http://www.w3.org/2000/svg">
<path d="M21.0957 200.764C23.5775 191.947 42.6481 185.763 51.8057 185.54C59.9847 185.34 70.968 183.171 85.6494 177.362C87.8038 176.51 90.206 176.401 92.4658 176.912C127.708 184.881 160.704 153.39 149 176C140.222 192.956 123.949 245 136.474 280C149 315 142.689 421.792 149 426C157.395 431.597 75.6497 428.243 42.5424 426.674C35.8003 426.355 31.3155 419.568 33.3501 413.132C42.5938 383.892 60.8598 313.98 29 301C0.901757 289.552 11.7916 233.822 21.0957 200.764Z" fill="#E89F9F"/>
<path d="M31.0957 190.764C33.5775 181.947 52.6481 175.763 61.8057 175.54C69.9847 175.34 80.968 173.171 95.6494 167.362C97.8038 166.51 100.206 166.401 102.466 166.912C137.708 174.881 170.704 143.39 159 166C150.222 182.956 133.949 235 146.474 270C159 305 152.689 411.792 159 416C167.395 421.597 85.6497 418.243 52.5424 416.674C45.8003 416.355 41.3155 409.568 43.3501 403.132C52.5938 373.892 70.8598 303.98 39 291C10.9018 279.552 21.7916 223.822 31.0957 190.764Z" fill="#FFC0C0"/>
<path d="M129.929 147.832C108.629 173.216 65.4526 169.443 44.6726 142.869C23.8926 116.295 12.7895 86.7442 37.0657 64.0359C70.2942 32.9535 97.6767 30.6958 134.064 61.2281C166.238 88.2252 151.229 122.447 129.929 147.832Z" fill="#9EB1F3"/>
<path d="M154.737 53.2334C176.037 78.6179 164.824 120.483 135.045 136.333C105.266 152.182 74.2365 157.985 56.0887 130.135C31.2486 92.0136 33.7801 64.6551 70.1671 34.1227C102.341 7.12558 133.437 27.849 154.737 53.2334Z" fill="#476CF2"/>
</svg>
