<svg width="157" height="402" viewBox="0 0 157 402" fill="none" xmlns="http://www.w3.org/2000/svg">
<path d="M13.9998 173C43.9998 127 120 214 139.5 178C149.559 159.429 145.914 230.414 133.068 276.982C131.907 281.19 127.91 283.752 123.738 285.036C94.0134 294.184 103.213 361.492 108.459 389.659C109.641 396.006 104.806 402 98.3494 402H22.494C17.5955 402 13.4316 398.488 12.7091 393.643C7.29116 357.31 -12.1523 213.1 13.9998 173Z" fill="#E89F9F"/>
<path d="M23.9998 163C53.9998 117 130 204 149.5 168C159.559 149.429 155.914 220.414 143.068 266.982C141.907 271.19 137.91 273.752 133.738 275.036C104.013 284.184 113.213 351.492 118.459 379.659C119.641 386.006 114.806 392 108.349 392H32.494C27.5955 392 23.4316 388.488 22.7091 383.643C17.2912 347.31 -2.15228 203.1 23.9998 163Z" fill="#FFC0C0"/>
<path d="M131 99.4995C131 132.637 95.4998 157.5 62.4998 150.5C29.4997 143.5 1.99966 128 5.99971 94.9995C11.4748 49.8301 30.9998 30.4995 78.4997 30.4995C120.5 30.4995 131 66.3624 131 99.4995Z" fill="#9EB1F3"/>
<path d="M88.9138 136.295C56.2801 142.049 25.6305 111.406 26.7937 77.6916C27.957 43.9773 38.4462 14.2035 71.6394 12.4124C117.073 9.96076 139.501 25.8323 147.749 72.6106C155.042 113.973 121.547 130.541 88.9138 136.295Z" fill="#476CF2"/>
</svg>
